<mxfile host="app.diagrams.net" modified="2022-11-29T08:55:17.207Z" agent="5.0 (Macintosh; Intel Mac OS X 10_14_6) AppleWebKit/537.36 (KHTML, like Gecko) Chrome/107.0.0.0 Safari/537.36" version="20.6.0" etag="2Teqbzy7CQxqANXy7axs" type="github">
  <diagram id="z30JZU3A5XoBl58_Tvaa" name="第 1 页">
    <mxGraphModel dx="1720" dy="971" grid="1" gridSize="10" guides="1" tooltips="1" connect="1" arrows="1" fold="1" page="1" pageScale="1" pageWidth="827" pageHeight="1169" math="0" shadow="0">
      <root>
        <mxCell id="0" />
        <mxCell id="1" parent="0" />
        <mxCell id="FDp3PBLIFGh2WiZWhGbb-116" style="edgeStyle=none;rounded=0;sketch=1;orthogonalLoop=1;jettySize=auto;html=1;strokeColor=default;strokeWidth=3;" edge="1" parent="1" source="FDp3PBLIFGh2WiZWhGbb-56">
          <mxGeometry relative="1" as="geometry">
            <mxPoint x="820" y="1050" as="targetPoint" />
          </mxGeometry>
        </mxCell>
        <mxCell id="FDp3PBLIFGh2WiZWhGbb-56" value="node1" style="rounded=1;whiteSpace=wrap;html=1;strokeWidth=2;fillWeight=4;hachureGap=8;hachureAngle=45;fillColor=#dae8fc;sketch=0;strokeColor=#6c8ebf;fontSize=15;fontStyle=1" vertex="1" parent="1">
          <mxGeometry x="760" y="240" width="120" height="60" as="geometry" />
        </mxCell>
        <mxCell id="FDp3PBLIFGh2WiZWhGbb-118" style="edgeStyle=none;rounded=0;sketch=1;orthogonalLoop=1;jettySize=auto;html=1;strokeColor=default;strokeWidth=3;" edge="1" parent="1" source="FDp3PBLIFGh2WiZWhGbb-58">
          <mxGeometry relative="1" as="geometry">
            <mxPoint x="1020" y="1050" as="targetPoint" />
          </mxGeometry>
        </mxCell>
        <mxCell id="FDp3PBLIFGh2WiZWhGbb-58" value="node2" style="rounded=1;whiteSpace=wrap;html=1;strokeWidth=2;fillWeight=4;hachureGap=8;hachureAngle=45;fillColor=#dae8fc;sketch=0;strokeColor=#6c8ebf;fontSize=15;fontStyle=1" vertex="1" parent="1">
          <mxGeometry x="960" y="240" width="120" height="60" as="geometry" />
        </mxCell>
        <mxCell id="FDp3PBLIFGh2WiZWhGbb-119" style="edgeStyle=none;rounded=0;sketch=1;orthogonalLoop=1;jettySize=auto;html=1;strokeColor=default;strokeWidth=3;" edge="1" parent="1" source="FDp3PBLIFGh2WiZWhGbb-60">
          <mxGeometry relative="1" as="geometry">
            <mxPoint x="1220" y="1052.2222222222222" as="targetPoint" />
          </mxGeometry>
        </mxCell>
        <mxCell id="FDp3PBLIFGh2WiZWhGbb-60" value="node3" style="rounded=1;whiteSpace=wrap;html=1;strokeWidth=2;fillWeight=4;hachureGap=8;hachureAngle=45;fillColor=#dae8fc;sketch=0;strokeColor=#6c8ebf;fontSize=15;fontStyle=1" vertex="1" parent="1">
          <mxGeometry x="1160" y="240" width="120" height="60" as="geometry" />
        </mxCell>
        <mxCell id="FDp3PBLIFGh2WiZWhGbb-64" value="[n1,n2,n3]" style="text;strokeColor=none;fillColor=none;html=1;fontSize=14;fontStyle=1;verticalAlign=middle;align=center;sketch=0;" vertex="1" parent="1">
          <mxGeometry x="820" y="320" width="100" height="40" as="geometry" />
        </mxCell>
        <mxCell id="FDp3PBLIFGh2WiZWhGbb-68" value="" style="endArrow=classic;html=1;rounded=0;sketch=1;strokeWidth=3;fontSize=15;fillColor=#dae8fc;strokeColor=#6c8ebf;" edge="1" parent="1">
          <mxGeometry width="50" height="50" relative="1" as="geometry">
            <mxPoint x="820" y="640" as="sourcePoint" />
            <mxPoint x="1420" y="640" as="targetPoint" />
            <Array as="points" />
          </mxGeometry>
        </mxCell>
        <mxCell id="FDp3PBLIFGh2WiZWhGbb-74" value="" style="endArrow=classic;html=1;rounded=0;sketch=1;strokeWidth=3;fontSize=15;fillColor=#dae8fc;strokeColor=#6c8ebf;" edge="1" parent="1">
          <mxGeometry width="50" height="50" relative="1" as="geometry">
            <mxPoint x="1420" y="600" as="sourcePoint" />
            <mxPoint x="820" y="600" as="targetPoint" />
          </mxGeometry>
        </mxCell>
        <mxCell id="FDp3PBLIFGh2WiZWhGbb-82" value="" style="endArrow=classic;html=1;rounded=0;sketch=1;strokeWidth=3;fontSize=14;fillColor=#dae8fc;strokeColor=#6c8ebf;" edge="1" parent="1">
          <mxGeometry width="50" height="50" relative="1" as="geometry">
            <mxPoint x="1220" y="479.99999999999983" as="sourcePoint" />
            <mxPoint x="1420" y="479.99999999999983" as="targetPoint" />
          </mxGeometry>
        </mxCell>
        <mxCell id="FDp3PBLIFGh2WiZWhGbb-83" value="" style="endArrow=classic;html=1;rounded=0;sketch=1;strokeWidth=3;fontSize=15;fillColor=#dae8fc;strokeColor=#6c8ebf;" edge="1" parent="1">
          <mxGeometry width="50" height="50" relative="1" as="geometry">
            <mxPoint x="1420" y="440.0000000000002" as="sourcePoint" />
            <mxPoint x="1220" y="440.0000000000002" as="targetPoint" />
          </mxGeometry>
        </mxCell>
        <mxCell id="FDp3PBLIFGh2WiZWhGbb-87" value="" style="endArrow=classic;html=1;rounded=0;sketch=1;strokeWidth=3;fontSize=14;fillColor=#dae8fc;strokeColor=#6c8ebf;" edge="1" parent="1">
          <mxGeometry width="50" height="50" relative="1" as="geometry">
            <mxPoint x="1020" y="559.9999999999998" as="sourcePoint" />
            <mxPoint x="1420" y="560" as="targetPoint" />
          </mxGeometry>
        </mxCell>
        <mxCell id="FDp3PBLIFGh2WiZWhGbb-88" value="" style="endArrow=classic;html=1;rounded=0;sketch=1;strokeWidth=3;fontSize=15;exitX=0;exitY=1;exitDx=0;exitDy=0;fillColor=#dae8fc;strokeColor=#6c8ebf;" edge="1" parent="1" source="FDp3PBLIFGh2WiZWhGbb-113">
          <mxGeometry width="50" height="50" relative="1" as="geometry">
            <mxPoint x="1220" y="520.0000000000002" as="sourcePoint" />
            <mxPoint x="1020" y="520.0000000000002" as="targetPoint" />
          </mxGeometry>
        </mxCell>
        <mxCell id="FDp3PBLIFGh2WiZWhGbb-120" style="edgeStyle=none;rounded=0;sketch=1;orthogonalLoop=1;jettySize=auto;html=1;strokeColor=default;strokeWidth=3;" edge="1" parent="1" source="FDp3PBLIFGh2WiZWhGbb-105">
          <mxGeometry relative="1" as="geometry">
            <mxPoint x="1420" y="1050" as="targetPoint" />
          </mxGeometry>
        </mxCell>
        <mxCell id="FDp3PBLIFGh2WiZWhGbb-105" value="node4" style="rounded=1;whiteSpace=wrap;html=1;strokeWidth=2;fillWeight=4;hachureGap=8;hachureAngle=45;fillColor=#f8cecc;sketch=0;strokeColor=#b85450;fontSize=15;fontStyle=1" vertex="1" parent="1">
          <mxGeometry x="1360" y="240" width="120" height="60" as="geometry" />
        </mxCell>
        <mxCell id="FDp3PBLIFGh2WiZWhGbb-107" value="[n1,n2,n3]" style="text;strokeColor=none;fillColor=none;html=1;fontSize=14;fontStyle=1;verticalAlign=middle;align=center;sketch=0;" vertex="1" parent="1">
          <mxGeometry x="1020" y="320" width="100" height="40" as="geometry" />
        </mxCell>
        <mxCell id="FDp3PBLIFGh2WiZWhGbb-108" value="[n1,n2,n3]" style="text;strokeColor=none;fillColor=none;html=1;fontSize=14;fontStyle=1;verticalAlign=middle;align=center;sketch=0;" vertex="1" parent="1">
          <mxGeometry x="1220" y="320" width="100" height="40" as="geometry" />
        </mxCell>
        <mxCell id="FDp3PBLIFGh2WiZWhGbb-109" value="[n4]" style="text;strokeColor=none;fillColor=none;html=1;fontSize=14;fontStyle=1;verticalAlign=middle;align=center;sketch=0;" vertex="1" parent="1">
          <mxGeometry x="1420" y="320" width="100" height="40" as="geometry" />
        </mxCell>
        <mxCell id="FDp3PBLIFGh2WiZWhGbb-112" value="[n1,n2,n3,n4]" style="text;strokeColor=none;fillColor=none;html=1;fontSize=14;fontStyle=1;verticalAlign=middle;align=center;sketch=0;" vertex="1" parent="1">
          <mxGeometry x="1220" y="440" width="100" height="40" as="geometry" />
        </mxCell>
        <mxCell id="FDp3PBLIFGh2WiZWhGbb-113" value="[n1,n2,n3,n4]" style="text;strokeColor=none;fillColor=none;html=1;fontSize=14;fontStyle=1;verticalAlign=middle;align=center;sketch=0;" vertex="1" parent="1">
          <mxGeometry x="1420" y="480" width="100" height="40" as="geometry" />
        </mxCell>
        <mxCell id="FDp3PBLIFGh2WiZWhGbb-114" value="[n1,n2,n3,n4]" style="text;strokeColor=none;fillColor=none;html=1;fontSize=14;fontStyle=1;verticalAlign=middle;align=center;sketch=0;" vertex="1" parent="1">
          <mxGeometry x="1020" y="520" width="100" height="40" as="geometry" />
        </mxCell>
        <mxCell id="FDp3PBLIFGh2WiZWhGbb-115" value="[n1,n2,n3,n4]" style="text;strokeColor=none;fillColor=none;html=1;fontSize=14;fontStyle=1;verticalAlign=middle;align=center;sketch=0;" vertex="1" parent="1">
          <mxGeometry x="820" y="600" width="100" height="40" as="geometry" />
        </mxCell>
        <mxCell id="FDp3PBLIFGh2WiZWhGbb-117" style="edgeStyle=none;rounded=0;sketch=1;orthogonalLoop=1;jettySize=auto;html=1;exitX=0.5;exitY=1;exitDx=0;exitDy=0;strokeColor=default;strokeWidth=3;" edge="1" parent="1" source="FDp3PBLIFGh2WiZWhGbb-107" target="FDp3PBLIFGh2WiZWhGbb-107">
          <mxGeometry relative="1" as="geometry" />
        </mxCell>
        <mxCell id="FDp3PBLIFGh2WiZWhGbb-121" value="" style="endArrow=classic;html=1;rounded=0;sketch=1;strokeWidth=3;fontSize=15;fillColor=#d5e8d4;strokeColor=#82b366;" edge="1" parent="1">
          <mxGeometry width="50" height="50" relative="1" as="geometry">
            <mxPoint x="820" y="960" as="sourcePoint" />
            <mxPoint x="1420" y="960" as="targetPoint" />
            <Array as="points" />
          </mxGeometry>
        </mxCell>
        <mxCell id="FDp3PBLIFGh2WiZWhGbb-122" value="" style="endArrow=classic;html=1;rounded=0;sketch=1;strokeWidth=3;fontSize=15;fillColor=#d5e8d4;strokeColor=#82b366;" edge="1" parent="1">
          <mxGeometry width="50" height="50" relative="1" as="geometry">
            <mxPoint x="1420" y="920" as="sourcePoint" />
            <mxPoint x="820" y="920" as="targetPoint" />
          </mxGeometry>
        </mxCell>
        <mxCell id="FDp3PBLIFGh2WiZWhGbb-123" value="" style="endArrow=classic;html=1;rounded=0;sketch=1;strokeWidth=3;fontSize=14;fillColor=#d5e8d4;strokeColor=#82b366;" edge="1" parent="1">
          <mxGeometry width="50" height="50" relative="1" as="geometry">
            <mxPoint x="1220" y="799.9999999999998" as="sourcePoint" />
            <mxPoint x="1420" y="799.9999999999998" as="targetPoint" />
          </mxGeometry>
        </mxCell>
        <mxCell id="FDp3PBLIFGh2WiZWhGbb-124" value="" style="endArrow=classic;html=1;rounded=0;sketch=1;strokeWidth=3;fontSize=15;fillColor=#d5e8d4;strokeColor=#82b366;" edge="1" parent="1">
          <mxGeometry width="50" height="50" relative="1" as="geometry">
            <mxPoint x="1420" y="760.0000000000002" as="sourcePoint" />
            <mxPoint x="1220" y="760.0000000000002" as="targetPoint" />
          </mxGeometry>
        </mxCell>
        <mxCell id="FDp3PBLIFGh2WiZWhGbb-125" value="" style="endArrow=classic;html=1;rounded=0;sketch=1;strokeWidth=3;fontSize=14;fillColor=#d5e8d4;strokeColor=#82b366;" edge="1" parent="1">
          <mxGeometry width="50" height="50" relative="1" as="geometry">
            <mxPoint x="1020" y="879.9999999999998" as="sourcePoint" />
            <mxPoint x="1420" y="880" as="targetPoint" />
          </mxGeometry>
        </mxCell>
        <mxCell id="FDp3PBLIFGh2WiZWhGbb-126" value="" style="endArrow=classic;html=1;rounded=0;sketch=1;strokeWidth=3;fontSize=15;exitX=0;exitY=1;exitDx=0;exitDy=0;fillColor=#d5e8d4;strokeColor=#82b366;" edge="1" parent="1">
          <mxGeometry width="50" height="50" relative="1" as="geometry">
            <mxPoint x="1420" y="840" as="sourcePoint" />
            <mxPoint x="1020" y="840.0000000000002" as="targetPoint" />
          </mxGeometry>
        </mxCell>
        <mxCell id="FDp3PBLIFGh2WiZWhGbb-132" value="[k1,k2]" style="text;strokeColor=none;fillColor=none;html=1;fontSize=14;fontStyle=1;verticalAlign=middle;align=center;sketch=0;" vertex="1" parent="1">
          <mxGeometry x="820" y="678.89" width="100" height="40" as="geometry" />
        </mxCell>
        <mxCell id="FDp3PBLIFGh2WiZWhGbb-135" value="[null,k3]" style="text;strokeColor=none;fillColor=none;html=1;fontSize=14;fontStyle=1;verticalAlign=middle;align=center;sketch=0;" vertex="1" parent="1">
          <mxGeometry x="1420" y="678.89" width="100" height="40" as="geometry" />
        </mxCell>
        <mxCell id="FDp3PBLIFGh2WiZWhGbb-136" style="edgeStyle=none;rounded=0;sketch=1;orthogonalLoop=1;jettySize=auto;html=1;exitX=0.5;exitY=1;exitDx=0;exitDy=0;strokeColor=#82b366;strokeWidth=3;fillColor=#d5e8d4;" edge="1" parent="1">
          <mxGeometry relative="1" as="geometry">
            <mxPoint x="1070" y="758.8900000000001" as="sourcePoint" />
            <mxPoint x="1070" y="758.8900000000001" as="targetPoint" />
          </mxGeometry>
        </mxCell>
        <mxCell id="FDp3PBLIFGh2WiZWhGbb-137" value="[k1,k2]" style="text;strokeColor=none;fillColor=none;html=1;fontSize=14;fontStyle=1;verticalAlign=middle;align=center;sketch=0;" vertex="1" parent="1">
          <mxGeometry x="1020" y="678.89" width="100" height="40" as="geometry" />
        </mxCell>
        <mxCell id="FDp3PBLIFGh2WiZWhGbb-138" value="[k1,k2]" style="text;strokeColor=none;fillColor=none;html=1;fontSize=14;fontStyle=1;verticalAlign=middle;align=center;sketch=0;" vertex="1" parent="1">
          <mxGeometry x="1220" y="678.89" width="100" height="40" as="geometry" />
        </mxCell>
        <mxCell id="FDp3PBLIFGh2WiZWhGbb-139" value="[k1,k2,k3]" style="text;strokeColor=none;fillColor=none;html=1;fontSize=14;fontStyle=1;verticalAlign=middle;align=center;sketch=0;" vertex="1" parent="1">
          <mxGeometry x="1420" y="760" width="100" height="40" as="geometry" />
        </mxCell>
        <mxCell id="FDp3PBLIFGh2WiZWhGbb-140" value="[k1,k2,k3]" style="text;html=1;fontSize=14;fontStyle=1;verticalAlign=middle;align=center;sketch=0;" vertex="1" parent="1">
          <mxGeometry x="1220" y="760" width="100" height="40" as="geometry" />
        </mxCell>
        <mxCell id="FDp3PBLIFGh2WiZWhGbb-141" value="[k1,k2,k3]" style="text;html=1;fontSize=14;fontStyle=1;verticalAlign=middle;align=center;sketch=0;" vertex="1" parent="1">
          <mxGeometry x="1020" y="840" width="100" height="40" as="geometry" />
        </mxCell>
        <mxCell id="FDp3PBLIFGh2WiZWhGbb-142" value="[k1,k2,k3]" style="text;html=1;fontSize=14;fontStyle=1;verticalAlign=middle;align=center;sketch=0;" vertex="1" parent="1">
          <mxGeometry x="820" y="920" width="100" height="40" as="geometry" />
        </mxCell>
        <mxCell id="FDp3PBLIFGh2WiZWhGbb-143" value="" style="shape=curlyBracket;whiteSpace=wrap;html=1;rounded=1;labelPosition=left;verticalLabelPosition=middle;align=right;verticalAlign=middle;sketch=0;fontSize=14;" vertex="1" parent="1">
          <mxGeometry x="780" y="718.89" width="20" height="240" as="geometry" />
        </mxCell>
        <mxCell id="FDp3PBLIFGh2WiZWhGbb-144" value="反熵" style="text;strokeColor=none;fillColor=none;html=1;fontSize=24;fontStyle=1;verticalAlign=middle;align=center;sketch=0;" vertex="1" parent="1">
          <mxGeometry x="680" y="818.89" width="100" height="40" as="geometry" />
        </mxCell>
      </root>
    </mxGraphModel>
  </diagram>
</mxfile>
